<svg width="28" height="28" viewBox="0 0 28 28" fill="none" xmlns="http://www.w3.org/2000/svg">
    <rect width="28" height="28" fill="#161616"/>
    <path d="M4.08334 11.2201C4.08334 10.7606 4.27309 10.3214 4.60774 10.0065L12.8577 2.24177C13.4995 1.63777 14.5005 1.63777 15.1423 2.24177L23.3923 10.0065C23.7269 10.3214 23.9167 10.7606 23.9167 11.2201V24C23.9167 24.9205 23.1705 25.6667 22.25 25.6667H5.75001C4.82954 25.6667 4.08334 24.9205 4.08334 24V11.2201Z" stroke="white" stroke-width="1.75" stroke-linecap="round"/>
    <path d="M10.5 25.6666V17.1666C10.5 16.7064 10.8731 16.3333 11.3333 16.3333H16.6667C17.1269 16.3333 17.5 16.7064 17.5 17.1666V25.6666" stroke="white" stroke-width="1.75" stroke-linecap="round" stroke-linejoin="round"/>
</svg>
